<?xml version="1.0" encoding="UTF-8"?>
<svg xmlns="http://www.w3.org/2000/svg" xmlns:xlink="http://www.w3.org/1999/xlink" width="586pt"
  height="449.12pt" viewBox="0 0 586 449.12" version="1.1">
  <defs>
    <clipPath id="clip1">
      <path d="M 428 369 L 512 369 L 512 449.121094 L 428 449.121094 Z M 428 369 " />
    </clipPath>
  </defs>
  <g id="surface1">
    <path
      style=" stroke:none;fill-rule:nonzero;fill:rgb(7.099915%,8.599854%,26.699829%);fill-opacity:1;"
      d="M 431.640625 207.414063 L 409.265625 198.214844 C 414.980469 191.492188 417.644531 183.53125 419.253906 178.699219 C 424.355469 163.410156 421.25 129.167969 398.359375 117.726563 C 398.367188 114.019531 397.785156 110.1875 396.492188 106.277344 C 395.039063 101.90625 393.125 97.359375 390.78125 92.929688 L 431.640625 75.910156 Z M 299.363281 267.390625 L 299.363281 225.691406 C 305.410156 227.613281 312.25 228.601563 319.878906 228.601563 C 320.929688 228.601563 322.007813 228.585938 323.09375 228.546875 C 335.300781 228.128906 346.007813 224.109375 353.273438 217.371094 C 356.011719 218.296875 358.816406 218.78125 361.652344 218.78125 C 365.425781 218.78125 369.25 217.953125 373.054688 216.300781 C 376.3125 214.882813 379.105469 212.859375 381.441406 210.277344 C 387.800781 210.277344 393.058594 209.070313 397.453125 207.121094 L 421.316406 216.933594 Z M 164.683594 216.933594 L 199.8125 202.492188 C 202.316406 207.011719 206.046875 210.78125 210.882813 213.476563 C 215.429688 216 220.453125 217.269531 225.246094 217.269531 C 229.976563 217.269531 234.480469 216.035156 238.066406 213.574219 C 238.976563 212.949219 239.796875 212.3125 240.582031 211.671875 C 242.050781 215.570313 244.382813 219.398438 248.097656 222.84375 C 253.628906 227.96875 263.449219 231.140625 273.09375 231.140625 C 274.574219 231.140625 276.046875 231.066406 277.5 230.917969 C 280.816406 230.566406 283.867188 229.816406 286.636719 228.722656 L 286.636719 267.390625 Z M 154.355469 75.910156 L 193.683594 92.289063 C 190.3125 97.484375 188.09375 103.179688 187.460938 108.632813 C 168.445313 124.929688 161.433594 152.582031 165.964844 169.765625 C 169.828125 184.414063 178.816406 191.464844 187.738281 193.695313 L 154.355469 207.414063 Z M 286.636719 15.886719 L 286.636719 52.515625 C 283.527344 54.1875 280.578125 56.160156 277.800781 58.480469 C 276.578125 56.261719 274.953125 54.226563 272.949219 52.5625 C 268.359375 48.742188 255.230469 41.578125 232.6875 57.527344 C 225.996094 62.261719 221.773438 68.019531 220.332031 74.089844 C 215.167969 74.496094 209.808594 76.625 204.699219 80.445313 C 203.957031 81 203.238281 81.589844 202.53125 82.1875 L 164.589844 66.386719 Z M 240.039063 67.917969 C 250.683594 60.382813 259.945313 58.300781 264.8125 62.347656 C 267.472656 64.5625 268.023438 67.9375 267.445313 69.699219 C 264.757813 73.40625 262.261719 77.570313 259.960938 82.226563 C 254.929688 90.261719 248.054688 90.410156 244.390625 89.792969 C 238.625 88.820313 233.703125 84.871094 232.683594 80.414063 C 231.503906 75.222656 236.03125 70.753906 240.039063 67.917969 Z M 205.316406 148.441406 C 208.644531 149.574219 212.257813 147.792969 213.390625 144.46875 C 215.199219 139.15625 218.234375 135.195313 221.71875 133.613281 C 224.011719 132.566406 226.429688 132.597656 229.097656 133.691406 C 240.101563 138.207031 241.480469 153.910156 240.40625 167.488281 C 240.039063 171.121094 239.699219 174.808594 239.402344 178.433594 C 239.234375 180.046875 239.097656 181.582031 238.960938 183.03125 C 237.847656 195.046875 237.242188 198.703125 230.871094 203.078125 C 227.679688 205.265625 221.746094 204.953125 217.074219 202.355469 C 214.285156 200.804688 209.929688 197.300781 209.058594 190.382813 C 217.242188 185.558594 223.410156 176.847656 225.488281 166.128906 C 226.15625 162.675781 223.902344 159.339844 220.449219 158.667969 C 217.003906 158.003906 213.660156 160.257813 212.992188 163.707031 C 210.652344 175.785156 201.894531 181.539063 194.746094 181.78125 C 186.988281 182.0625 180.859375 176.332031 178.273438 166.519531 C 175.148438 154.683594 180.207031 130.1875 197.515625 116.855469 C 199.082031 115.648438 200 113.785156 200 111.8125 C 200 104.996094 205.292969 95.890625 212.320313 90.640625 C 215.460938 88.289063 218.628906 86.96875 221.414063 86.761719 C 224.722656 94.65625 232.679688 100.722656 242.273438 102.339844 C 243.886719 102.613281 245.488281 102.75 247.0625 102.75 C 248.789063 102.75 250.480469 102.582031 252.132813 102.265625 C 249.535156 110.667969 247.289063 120.128906 245.375 130.683594 C 241.953125 126.226563 237.855469 123.527344 233.929688 121.914063 C 228 119.484375 221.957031 119.527344 216.453125 122.03125 C 209.683594 125.101563 204.316406 131.617188 201.339844 140.371094 C 200.210938 143.695313 201.988281 147.3125 205.316406 148.441406 Z M 315.34375 122.472656 C 323.628906 142.078125 341.5625 151.179688 358.820313 151.179688 C 363.082031 151.179688 367.300781 150.617188 371.328125 149.527344 C 375.191406 160.484375 379.945313 182.554688 375.332031 195.828125 C 373.789063 200.269531 371.378906 203.148438 367.972656 204.632813 C 363.070313 206.769531 358.515625 206.484375 354.046875 203.765625 C 345.488281 198.566406 340.117188 186.335938 339.679688 179.871094 C 339.4375 176.363281 336.371094 173.753906 332.894531 173.957031 C 329.386719 174.195313 326.738281 177.234375 326.980469 180.738281 C 327.605469 189.875 333.132813 202.226563 341.761719 210.28125 C 336.859375 213.589844 330.230469 215.566406 322.660156 215.824219 C 307.335938 216.355469 296.089844 212.609375 289.164063 204.714844 C 281.058594 195.46875 280.667969 182.519531 281.589844 176.972656 C 282.171875 173.503906 279.828125 170.226563 276.359375 169.648438 C 272.886719 169.074219 269.617188 171.414063 269.035156 174.878906 C 267.675781 183.050781 268.363281 200.296875 279.597656 213.105469 C 280.636719 214.285156 281.742188 215.398438 282.902344 216.445313 C 280.636719 217.527344 278.203125 218.042969 276.160156 218.261719 C 268.226563 219.09375 259.917969 216.445313 256.75 213.507813 C 250.71875 207.921875 250.695313 200.40625 251.296875 191.15625 C 252.023438 179.851563 252.9375 169.382813 254.039063 159.65625 C 254.550781 155.167969 257.007813 149.863281 260.097656 146.59375 C 264.464844 141.972656 271.691406 139.699219 277.972656 140.5625 C 288.046875 141.953125 298.027344 150.878906 295.816406 171.746094 C 295.449219 175.246094 297.984375 178.378906 301.476563 178.75 C 301.707031 178.769531 301.929688 178.78125 302.152344 178.78125 C 305.371094 178.78125 308.132813 176.355469 308.476563 173.085938 C 311.441406 145.0625 296.160156 130.226563 279.710938 127.957031 C 272.515625 126.964844 264.710938 128.402344 258.019531 132.273438 C 260.179688 120.5 262.753906 110.246094 265.785156 101.46875 C 267.660156 103.753906 270.042969 105.734375 272.90625 107.289063 C 277 109.507813 281.78125 110.707031 286.851563 110.707031 C 298.382813 110.703125 311.394531 104.484375 321.058594 89.871094 C 322.996094 86.9375 322.195313 82.988281 319.265625 81.054688 C 316.328125 79.109375 312.386719 79.914063 310.445313 82.851563 C 300.859375 97.347656 287.074219 100.492188 278.976563 96.097656 C 273.75 93.269531 272.234375 88.109375 274.6875 81.890625 C 280.53125 72.238281 287.472656 65.792969 295.628906 62.265625 C 304.046875 58.632813 318.839844 57.777344 329.023438 62.648438 C 333.359375 64.726563 336.4375 67.683594 338.257813 71.445313 C 337.210938 72.910156 336.316406 74.550781 335.640625 76.351563 C 331.972656 86.09375 334.109375 101.492188 351.097656 115.507813 C 353.808594 117.75 357.820313 117.359375 360.054688 114.652344 C 362.289063 111.941406 361.90625 107.929688 359.199219 105.695313 C 347.382813 95.941406 345.433594 86.457031 347.550781 80.832031 C 348.570313 78.128906 350.519531 76.503906 352.582031 76.480469 C 366.960938 76.914063 378.929688 93.777344 384.410156 110.289063 C 390.144531 127.5625 375.535156 134.570313 370.914063 136.308594 C 355.890625 141.960938 335.425781 137.296875 327.070313 117.519531 C 325.703125 114.28125 321.984375 112.761719 318.730469 114.132813 C 315.496094 115.503906 313.980469 119.234375 315.34375 122.472656 Z M 407.179688 174.675781 C 403.769531 184.902344 399.601563 194.199219 388.300781 196.8125 C 392.628906 179.839844 387.449219 156.621094 383 144.4375 C 388.65625 140.882813 392.878906 136.195313 395.449219 130.777344 C 408.589844 140.132813 410.839844 163.691406 407.179688 174.675781 Z M 421.40625 66.386719 L 383.839844 82.03125 C 376.0625 71.875 365.636719 64.144531 352.96875 63.761719 C 351.550781 63.714844 350.15625 63.863281 348.804688 64.175781 C 345.671875 58.636719 340.847656 54.199219 334.511719 51.171875 C 323.660156 45.972656 310.117188 45.585938 299.363281 47.871094 L 299.363281 15.886719 Z M 440.4375 60.488281 L 295.433594 0.488281 C 293.875 -0.15625 292.125 -0.15625 290.5625 0.488281 L 145.558594 60.488281 C 143.179688 61.472656 141.628906 63.792969 141.628906 66.367188 L 141.628906 216.910156 C 141.628906 219.484375 143.179688 221.804688 145.558594 222.792969 L 290.5625 282.789063 C 291.347656 283.113281 292.171875 283.273438 293 283.273438 C 293.824219 283.273438 294.652344 283.113281 295.433594 282.789063 L 440.4375 222.792969 C 442.816406 221.804688 444.367188 219.484375 444.367188 216.910156 L 444.367188 66.367188 C 444.367188 63.792969 442.816406 61.472656 440.4375 60.488281 " />
    <path
      style=" stroke:none;fill-rule:nonzero;fill:rgb(7.099915%,8.599854%,26.699829%);fill-opacity:1;"
      d="M 45.789063 434.757813 C 49.015625 432.519531 50.628906 429.382813 50.628906 425.347656 C 50.628906 421.457031 49.015625 418.414063 45.789063 416.210938 C 42.558594 414.011719 38.082031 412.910156 32.359375 412.910156 L 10.566406 412.910156 L 10.566406 438.003906 L 32.359375 438.003906 C 38.082031 438.078125 42.558594 436.996094 45.789063 434.757813 Z M 43.421875 400.304688 C 46.023438 398.289063 47.328125 395.410156 47.328125 391.667969 C 47.328125 388 46.023438 385.171875 43.421875 383.191406 C 40.816406 381.210938 37.128906 380.257813 32.359375 380.328125 L 10.566406 380.328125 L 10.566406 403.332031 L 32.359375 403.332031 C 37.128906 403.332031 40.816406 402.324219 43.421875 400.304688 Z M 51.457031 375.761719 C 55.96875 379.175781 58.222656 383.890625 58.222656 389.90625 C 58.222656 394.308594 56.976563 398.03125 54.480469 401.078125 C 51.988281 404.125 48.574219 406.160156 44.246094 407.183594 C 49.601563 407.992188 53.804688 410.140625 56.847656 413.625 C 59.890625 417.109375 61.417969 421.457031 61.417969 426.667969 C 61.417969 433.269531 58.941406 438.429688 53.988281 442.132813 C 49.035156 445.835938 42.191406 447.691406 33.460938 447.691406 L 0 447.691406 L 0 370.644531 L 32.910156 370.644531 C 40.761719 370.644531 46.945313 372.351563 51.457031 375.761719 " />
    <path
      style=" stroke:none;fill-rule:nonzero;fill:rgb(7.099915%,8.599854%,26.699829%);fill-opacity:1;"
      d="M 108.523438 414.121094 C 115.128906 414.121094 120.191406 412.671875 123.710938 409.773438 C 127.234375 406.875 128.996094 402.601563 128.996094 396.949219 C 128.996094 391.445313 127.234375 387.28125 123.710938 384.460938 C 120.191406 381.632813 115.128906 380.21875 108.523438 380.21875 L 88.929688 380.21875 L 88.929688 414.121094 Z M 128.113281 447.691406 L 112.816406 423.476563 C 111.054688 423.625 109.625 423.695313 108.523438 423.695313 L 88.929688 423.695313 L 88.929688 447.691406 L 78.363281 447.691406 L 78.363281 370.644531 L 108.523438 370.644531 C 118.28125 370.644531 125.820313 372.898438 131.140625 377.414063 C 136.460938 381.925781 139.121094 388.328125 139.121094 396.621094 C 139.121094 402.855469 137.671875 408.105469 134.773438 412.359375 C 131.871094 416.617188 127.710938 419.695313 122.28125 421.605469 L 140.222656 447.691406 L 128.113281 447.691406 " />
    <path
      style=" stroke:none;fill-rule:nonzero;fill:rgb(7.099915%,8.599854%,26.699829%);fill-opacity:1;"
      d="M 170.601563 419.402344 L 202.960938 419.402344 L 186.671875 381.980469 Z M 215.175781 447.691406 L 207.027344 428.980469 L 166.417969 428.980469 L 158.382813 447.691406 L 147.265625 447.691406 L 181.492188 370.644531 L 192.503906 370.644531 L 226.621094 447.691406 L 215.175781 447.691406 " />
    <path
      style=" stroke:none;fill-rule:nonzero;fill:rgb(7.099915%,8.599854%,26.699829%);fill-opacity:1;"
      d="M 237.847656 370.644531 L 248.414063 370.644531 L 248.414063 447.691406 L 237.847656 447.691406 L 237.847656 370.644531 " />
    <path
      style=" stroke:none;fill-rule:nonzero;fill:rgb(7.099915%,8.599854%,26.699829%);fill-opacity:1;"
      d="M 325.234375 370.644531 L 335.695313 370.644531 L 335.695313 447.691406 L 325.019531 447.691406 L 280.996094 388.035156 L 280.996094 447.691406 L 270.429688 447.691406 L 270.429688 370.644531 L 281.101563 370.644531 L 325.234375 430.40625 L 325.234375 370.644531 " />
    <path
      style=" stroke:none;fill-rule:nonzero;fill:rgb(7.099915%,8.599854%,26.699829%);fill-opacity:1;"
      d="M 398.207031 429.859375 C 400.257813 428.394531 401.285156 426.339844 401.285156 423.695313 C 401.285156 421.273438 400.257813 419.347656 398.207031 417.917969 C 396.152344 416.488281 393.359375 415.808594 389.84375 415.882813 L 374.433594 415.882813 L 374.433594 432.058594 L 389.84375 432.058594 C 393.359375 432.058594 396.152344 431.328125 398.207031 429.859375 Z M 396.441406 399.207031 C 398.058594 397.851563 398.863281 395.960938 398.863281 393.539063 C 398.863281 391.191406 398.058594 389.375 396.441406 388.089844 C 394.828125 386.808594 392.628906 386.203125 389.84375 386.273438 L 374.433594 386.273438 L 374.433594 401.242188 L 389.84375 401.242188 C 392.628906 401.242188 394.828125 400.566406 396.441406 399.207031 Z M 406.074219 372.898438 C 410.367188 374.480469 413.6875 376.734375 416.039063 379.671875 C 418.382813 382.605469 419.554688 386.054688 419.554688 390.015625 C 419.554688 394.050781 418.363281 397.574219 415.976563 400.582031 C 413.597656 403.589844 410.351563 405.644531 406.238281 406.746094 C 411.15625 407.699219 415.027344 409.9375 417.851563 413.460938 C 420.675781 416.984375 422.089844 421.238281 422.089844 426.226563 C 422.089844 430.554688 420.878906 434.355469 418.460938 437.617188 C 416.039063 440.882813 412.585938 443.378906 408.113281 445.105469 C 403.636719 446.828125 398.386719 447.691406 392.371094 447.691406 L 354.289063 447.691406 L 354.289063 370.535156 L 390.9375 370.535156 C 396.738281 370.535156 401.78125 371.324219 406.074219 372.898438 " />
    <g clip-path="url(#clip1)" clip-rule="nonzero">
      <path
        style=" stroke:none;fill-rule:nonzero;fill:rgb(7.099915%,8.599854%,26.699829%);fill-opacity:1;"
        d="M 459.460938 389.355469 C 456.195313 391.335938 453.605469 394.070313 451.695313 397.554688 C 449.792969 401.039063 448.835938 404.875 448.835938 409.058594 C 448.835938 413.3125 449.808594 417.183594 451.757813 420.667969 C 453.699219 424.152344 456.285156 426.90625 459.515625 428.921875 C 462.742188 430.941406 466.261719 431.949219 470.082031 431.949219 C 473.894531 431.949219 477.398438 430.941406 480.589844 428.921875 C 483.785156 426.90625 486.296875 424.152344 488.132813 420.667969 C 489.96875 417.183594 490.882813 413.3125 490.882813 409.058594 C 490.882813 404.875 489.96875 401.039063 488.132813 397.554688 C 486.296875 394.070313 483.785156 391.335938 480.589844 389.355469 C 477.398438 387.375 473.894531 386.386719 470.082031 386.386719 C 466.261719 386.386719 462.722656 387.375 459.460938 389.355469 Z M 491.15625 374.496094 C 497.503906 377.945313 502.492188 382.679688 506.128906 388.695313 C 509.761719 394.714844 511.574219 401.464844 511.574219 408.945313 C 511.574219 416.507813 509.761719 423.328125 506.128906 429.417969 C 502.492188 435.511719 497.503906 440.316406 491.15625 443.835938 C 484.8125 447.359375 477.710938 449.121094 469.859375 449.121094 C 462.007813 449.121094 454.910156 447.378906 448.558594 443.890625 C 442.21875 440.40625 437.222656 435.601563 433.59375 429.476563 C 429.960938 423.347656 428.148438 416.507813 428.148438 408.945313 C 428.148438 401.464844 429.960938 394.714844 433.59375 388.695313 C 437.222656 382.679688 442.21875 377.945313 448.558594 374.496094 C 454.910156 371.050781 462.007813 369.324219 469.859375 369.324219 C 477.710938 369.324219 484.8125 371.050781 491.15625 374.496094 " />
    </g>
    <path
      style=" stroke:none;fill-rule:nonzero;fill:rgb(7.099915%,8.599854%,26.699829%);fill-opacity:1;"
      d="M 507.628906 370.535156 L 531.074219 370.535156 L 545.488281 392.4375 L 560.019531 370.535156 L 583.796875 370.535156 L 558.367188 407.40625 L 585.996094 447.691406 L 561.890625 447.691406 L 545.488281 423.808594 L 529.425781 447.691406 L 505.867188 447.691406 L 533.273438 408.394531 L 507.628906 370.535156 " />
  </g>
</svg>
